<?xml version="1.0" encoding="UTF-8" standalone="no"?>
<!-- Created with Inkscape (http://www.inkscape.org/) -->

<svg
   xmlns:dc="http://purl.org/dc/elements/1.1/"
   xmlns:cc="http://creativecommons.org/ns#"
   xmlns:rdf="http://www.w3.org/1999/02/22-rdf-syntax-ns#"
   xmlns:svg="http://www.w3.org/2000/svg"
   xmlns="http://www.w3.org/2000/svg"
   xmlns:sodipodi="http://sodipodi.sourceforge.net/DTD/sodipodi-0.dtd"
   xmlns:inkscape="http://www.inkscape.org/namespaces/inkscape"
   width="13.229162mm"
   height="13.229162mm"
   viewBox="0 0 13.229162 13.229162"
   version="1.1"
   id="svg912"
   sodipodi:docname="iconFull.svg"
   inkscape:version="0.92.4 (5da689c313, 2019-01-14)">
  <defs
     id="defs906" />
  <sodipodi:namedview
     id="base"
     pagecolor="#ffffff"
     bordercolor="#666666"
     borderopacity="1.0"
     inkscape:pageopacity="0.0"
     inkscape:pageshadow="2"
     inkscape:zoom="11.2"
     inkscape:cx="8.3252796"
     inkscape:cy="24.347928"
     inkscape:document-units="mm"
     inkscape:current-layer="layer1"
     showgrid="false"
     inkscape:window-width="1913"
     inkscape:window-height="1181"
     inkscape:window-x="663"
     inkscape:window-y="618"
     inkscape:window-maximized="0"
     fit-margin-top="0"
     fit-margin-left="0"
     fit-margin-right="0"
     fit-margin-bottom="0"
     inkscape:pagecheckerboard="true" />
  <metadata
     id="metadata909">
    <rdf:RDF>
      <cc:Work
         rdf:about="">
        <dc:format>image/svg+xml</dc:format>
        <dc:type
           rdf:resource="http://purl.org/dc/dcmitype/StillImage" />
        <dc:title></dc:title>
      </cc:Work>
    </rdf:RDF>
  </metadata>
  <g
     inkscape:label="Layer 1"
     inkscape:groupmode="layer"
     id="layer1"
     transform="translate(-255.7009,-210.25447)">
    <path
       style="fill:#4d4d4d;fill-opacity:1;fill-rule:evenodd;stroke-width:2.57525826"
       d="M 6.25 0 C 2.7875012 0 1.1842379e-15 2.7875012 0 6.25 L 0 43.75 C 0 47.212499 2.7875012 50 6.25 50 L 43.75 50 C 47.212499 50 50 47.212499 50 43.75 L 50 6.25 C 50 2.7875012 47.212499 1.1842379e-15 43.75 0 L 6.25 0 z M 8.8027344 0.11914062 L 40.841797 0.11914062 L 40.841797 18.808594 L 8.8027344 18.808594 L 8.8027344 0.11914062 z M 27.736328 2.4140625 L 27.736328 13.888672 L 34.046875 13.888672 L 34.046875 2.4140625 L 27.736328 2.4140625 z M 7.28125 24.753906 L 42.880859 24.753906 L 42.880859 47.705078 L 7.28125 47.705078 L 7.28125 24.753906 z "
       transform="matrix(0.26458333,0,0,0.26458333,255.7009,210.25447)"
       id="rect1963" />
  </g>
</svg>
