<?xml version="1.0" encoding="UTF-8" standalone="no"?>
<svg
   xmlns:dc="http://purl.org/dc/elements/1.1/"
   xmlns:cc="http://creativecommons.org/ns#"
   xmlns:rdf="http://www.w3.org/1999/02/22-rdf-syntax-ns#"
   xmlns:svg="http://www.w3.org/2000/svg"
   xmlns="http://www.w3.org/2000/svg"
   xmlns:sodipodi="http://sodipodi.sourceforge.net/DTD/sodipodi-0.dtd"
   xmlns:inkscape="http://www.inkscape.org/namespaces/inkscape"
   width="22.584278"
   height="16.000072"
   viewBox="0 0 5.9754233 4.2333527"
   version="1.1"
   id="svg912"
   inkscape:version="1.0.2 (e86c870879, 2021-01-15)"
   sodipodi:docname="save_bg.svg">
  <defs
     id="defs906" />
  <sodipodi:namedview
     id="base"
     pagecolor="#ffffff"
     bordercolor="#666666"
     borderopacity="1.0"
     inkscape:pageopacity="0.0"
     inkscape:pageshadow="2"
     inkscape:zoom="22.4"
     inkscape:cx="10.242453"
     inkscape:cy="11.509859"
     inkscape:document-units="mm"
     inkscape:current-layer="layer1"
     inkscape:document-rotation="0"
     showgrid="true"
     fit-margin-top="0"
     fit-margin-left="0"
     fit-margin-right="0"
     fit-margin-bottom="0"
     units="px"
     inkscape:window-width="1343"
     inkscape:window-height="908"
     inkscape:window-x="941"
     inkscape:window-y="599"
     inkscape:window-maximized="0">
    <inkscape:grid
       type="xygrid"
       id="grid1507" />
  </sodipodi:namedview>
  <metadata
     id="metadata909">
    <rdf:RDF>
      <cc:Work
         rdf:about="">
        <dc:format>image/svg+xml</dc:format>
        <dc:type
           rdf:resource="http://purl.org/dc/dcmitype/StillImage" />
        <dc:title></dc:title>
      </cc:Work>
    </rdf:RDF>
  </metadata>
  <g
     inkscape:label="Layer 1"
     inkscape:groupmode="layer"
     id="layer1"
     transform="translate(-173.90514,-94.645228)">
    <path
       id="path1685"
       style="color:#000000;font-style:normal;font-variant:normal;font-weight:normal;font-stretch:normal;font-size:medium;line-height:normal;font-family:sans-serif;font-variant-ligatures:normal;font-variant-position:normal;font-variant-caps:normal;font-variant-numeric:normal;font-variant-alternates:normal;font-variant-east-asian:normal;font-feature-settings:normal;font-variation-settings:normal;text-indent:0;text-align:start;text-decoration:none;text-decoration-line:none;text-decoration-style:solid;text-decoration-color:#000000;letter-spacing:normal;word-spacing:normal;text-transform:none;writing-mode:lr-tb;direction:ltr;text-orientation:mixed;dominant-baseline:auto;baseline-shift:baseline;text-anchor:start;white-space:normal;shape-padding:0;shape-margin:0;inline-size:0;clip-rule:nonzero;display:inline;overflow:visible;visibility:visible;opacity:1;isolation:auto;mix-blend-mode:normal;color-interpolation:sRGB;color-interpolation-filters:linearRGB;solid-color:#000000;solid-opacity:1;vector-effect:none;fill:#4d4d4d;fill-opacity:1;fill-rule:nonzero;stroke:none;stroke-width:3.77953;stroke-linecap:butt;stroke-linejoin:miter;stroke-miterlimit:4;stroke-dasharray:none;stroke-dashoffset:0;stroke-opacity:1;color-rendering:auto;image-rendering:auto;shape-rendering:auto;text-rendering:auto;enable-background:accumulate;stop-color:#000000;stop-opacity:1"
       d="M 1.421875 -0.001953125 C 0.63233169 -0.0024671407 -0.0039818406 0.65548327 -0.00390625 1.4589844 L 0.00390625 14.318359 C 0.0039440453 15.179404 0.6442049 15.971152 1.5175781 15.972656 L 17.417969 16.001953 C 17.574798 16.002196 17.719996 15.97601 17.857422 15.9375 C 17.897236 15.92676 17.937045 15.91623 17.974609 15.902344 C 18.096807 15.856591 18.206829 15.792841 18.306641 15.716797 C 18.316304 15.708983 18.330436 15.707358 18.339844 15.699219 C 18.350687 15.689837 18.356713 15.675729 18.367188 15.666016 C 18.400368 15.637212 18.436818 15.612329 18.466797 15.580078 C 18.596258 15.440784 18.689267 15.27266 18.751953 15.085938 C 18.780995 15.020995 18.815573 14.963924 18.841797 14.894531 L 22.525391 5.1347656 C 22.632502 4.8513237 22.583665 4.532366 22.429688 4.2636719 C 22.275747 3.9949739 21.986068 3.7697353 21.611328 3.7695312 L 18.835938 3.7675781 L 18.835938 3.6523438 C 18.835635 3.2417548 18.717444 2.8273716 18.474609 2.5078125 C 18.231775 2.1882534 17.846573 1.9685988 17.380859 1.96875 L 10.449219 1.96875 L 6.765625 0.00390625 L 1.421875 -0.001953125 z M 1.421875 0.5 L 6.640625 0.50585938 L 10.324219 2.4707031 L 17.380859 2.4707031 C 17.695618 2.4706011 17.910981 2.5957147 18.074219 2.8105469 C 18.237457 3.025379 18.333758 3.3386619 18.333984 3.6523438 L 18.333984 3.7675781 L 5.296875 3.7617188 C 5.0132215 3.7615713 4.7561975 3.810633 4.5449219 3.953125 C 4.3336841 4.0956207 4.1891075 4.3185277 4.09375 4.5957031 L 0.66210938 14.583984 C 0.63543614 14.661432 0.62138655 14.736001 0.609375 14.810547 C 0.54314494 14.658354 0.49805768 14.494173 0.49804688 14.318359 L 0.49804688 1.4589844 C 0.49800908 0.90945241 0.90249232 0.49965984 1.421875 0.5 z "
       transform="matrix(0.26458333,0,0,0.26458333,173.90514,94.645228)" />
    <g
       id="path1687"
       style="opacity:1" />
  </g>
</svg>
