<?xml version="1.0" encoding="UTF-8" standalone="no"?>
<svg
   xmlns:dc="http://purl.org/dc/elements/1.1/"
   xmlns:cc="http://creativecommons.org/ns#"
   xmlns:rdf="http://www.w3.org/1999/02/22-rdf-syntax-ns#"
   xmlns:svg="http://www.w3.org/2000/svg"
   xmlns="http://www.w3.org/2000/svg"
   xmlns:sodipodi="http://sodipodi.sourceforge.net/DTD/sodipodi-0.dtd"
   xmlns:inkscape="http://www.inkscape.org/namespaces/inkscape"
   fill-opacity="0"
   color-rendering="auto"
   color-interpolation="auto"
   text-rendering="auto"
   stroke="rgb(0,0,0)"
   stroke-linecap="square"
   width="563"
   stroke-miterlimit="10"
   shape-rendering="auto"
   stroke-opacity="0"
   fill="rgb(0,0,0)"
   stroke-dasharray="none"
   font-weight="normal"
   stroke-width="1"
   height="261"
   font-family="'Dialog'"
   font-style="normal"
   stroke-linejoin="miter"
   font-size="12px"
   stroke-dashoffset="0"
   image-rendering="auto"
   version="1.1"
   id="svg150"
   sodipodi:docname="QSvgPixmap.svg"
   inkscape:version="0.92.4 (5da689c313, 2019-01-14)">
  <metadata
     id="metadata154">
    <rdf:RDF>
      <cc:Work
         rdf:about="">
        <dc:format>image/svg+xml</dc:format>
        <dc:type
           rdf:resource="http://purl.org/dc/dcmitype/StillImage" />
      </cc:Work>
    </rdf:RDF>
  </metadata>
  <sodipodi:namedview
     pagecolor="#ffffff"
     bordercolor="#666666"
     borderopacity="1"
     objecttolerance="10"
     gridtolerance="10"
     guidetolerance="10"
     inkscape:pageopacity="0"
     inkscape:pageshadow="2"
     inkscape:window-width="1385"
     inkscape:window-height="960"
     id="namedview152"
     showgrid="false"
     inkscape:zoom="0.63410302"
     inkscape:cx="21.289916"
     inkscape:cy="130.5"
     inkscape:window-x="130"
     inkscape:window-y="0"
     inkscape:window-maximized="0"
     inkscape:current-layer="svg150" />
  <!--Generated by the Batik Graphics2D SVG Generator-->
  <defs
     id="genericDefs">
    <defs
       id="defs1">
      <clipPath
         id="clipPath1"
         clipPathUnits="userSpaceOnUse">
        <path
           id="path3"
           d="M-9.7 -9.7 L320.3 -9.7 L320.3 95.3 L-9.7 95.3 L-9.7 -9.7 Z" />
      </clipPath>
      <clipPath
         id="clipPath2"
         clipPathUnits="userSpaceOnUse">
        <path
           id="path6"
           d="M-8.8182 -8.8182 L291.1818 -8.8182 L291.1818 86.6364 L-8.8182 86.6364 L-8.8182 -8.8182 Z" />
      </clipPath>
      <clipPath
         id="clipPath3"
         clipPathUnits="userSpaceOnUse">
        <path
           id="path9"
           d="M0 -0 L0 71 L311 71 L311 -0 Z" />
      </clipPath>
      <clipPath
         id="clipPath4"
         clipPathUnits="userSpaceOnUse">
        <path
           id="path12"
           d="M0 -0 L0 15 L311 15 L311 -0 Z" />
      </clipPath>
      <clipPath
         id="clipPath5"
         clipPathUnits="userSpaceOnUse">
        <path
           id="path15"
           d="M0 -0 L0 13.6364 L282.7273 13.6364 L282.7273 -0 Z" />
      </clipPath>
      <clipPath
         id="clipPath6"
         clipPathUnits="userSpaceOnUse">
        <path
           id="path18"
           d="M-9.7 -9.7 L320.3 -9.7 L320.3 84.3 L-9.7 84.3 L-9.7 -9.7 Z" />
      </clipPath>
      <clipPath
         id="clipPath7"
         clipPathUnits="userSpaceOnUse">
        <path
           id="path21"
           d="M-8.8182 -8.8182 L291.1818 -8.8182 L291.1818 76.6364 L-8.8182 76.6364 L-8.8182 -8.8182 Z" />
      </clipPath>
      <clipPath
         id="clipPath8"
         clipPathUnits="userSpaceOnUse">
        <path
           id="path24"
           d="M0 0 L0 60 L311 60 L311 0 Z" />
      </clipPath>
      <clipPath
         id="clipPath9"
         clipPathUnits="userSpaceOnUse">
        <path
           id="path27"
           d="M0 0 L0 15 L311 15 L311 0 Z" />
      </clipPath>
      <clipPath
         id="clipPath10"
         clipPathUnits="userSpaceOnUse">
        <path
           id="path30"
           d="M0 0 L0 13.6364 L282.7273 13.6364 L282.7273 0 Z" />
      </clipPath>
      <clipPath
         id="clipPath11"
         clipPathUnits="userSpaceOnUse">
        <path
           id="path33"
           d="M-9.7 -9.7 L167.3 -9.7 L167.3 95.3 L-9.7 95.3 L-9.7 -9.7 Z" />
      </clipPath>
      <clipPath
         id="clipPath12"
         clipPathUnits="userSpaceOnUse">
        <path
           id="path36"
           d="M-8.8182 -8.8182 L152.0909 -8.8182 L152.0909 86.6364 L-8.8182 86.6364 L-8.8182 -8.8182 Z" />
      </clipPath>
      <clipPath
         id="clipPath13"
         clipPathUnits="userSpaceOnUse">
        <path
           id="path39"
           d="M0 -0 L0 55 L158 55 L158 -0 Z" />
      </clipPath>
      <clipPath
         id="clipPath14"
         clipPathUnits="userSpaceOnUse">
        <path
           id="path42"
           d="M0 -0 L0 50 L143.6364 50 L143.6364 -0 Z" />
      </clipPath>
      <clipPath
         id="clipPath15"
         clipPathUnits="userSpaceOnUse">
        <path
           id="path45"
           d="M0 -0 L0 31 L158 31 L158 -0 Z" />
      </clipPath>
      <clipPath
         id="clipPath16"
         clipPathUnits="userSpaceOnUse">
        <path
           id="path48"
           d="M0 -0 L0 28.1818 L143.6364 28.1818 L143.6364 -0 Z" />
      </clipPath>
      <clipPath
         id="clipPath17"
         clipPathUnits="userSpaceOnUse">
        <path
           id="path51"
           d="M-2 -2 L102 -2 L102 164 L-2 164 L-2 -2 Z" />
      </clipPath>
      <clipPath
         id="clipPath18"
         clipPathUnits="userSpaceOnUse">
        <path
           id="path54"
           d="M-2 -2 L-2 164 L102 164 L102 -2 Z" />
      </clipPath>
      <clipPath
         id="clipPath19"
         clipPathUnits="userSpaceOnUse">
        <path
           id="path57"
           d="M-2 -2 L158 -2 L158 102 L-2 102 L-2 -2 Z" />
      </clipPath>
      <clipPath
         id="clipPath20"
         clipPathUnits="userSpaceOnUse">
        <path
           id="path60"
           d="M-2 -2 L-2 102 L158 102 L158 -2 Z" />
      </clipPath>
    </defs>
  </defs>
  <rect
     x="0"
     width="563"
     height="261"
     y="0"
     id="rect64"
     style="fill:#ffffff;fill-opacity:1;stroke:none;stroke-opacity:1" />
  <rect
     x="0"
     width="282"
     height="78"
     y="0"
     clip-path="url(#clipPath2)"
     id="rect68"
     style="font-weight:bold;font-size:11px;font-family:sans-serif;fill:#7acff5;fill-opacity:1;stroke:none;stroke-opacity:1;text-rendering:geometricPrecision"
     transform="matrix(1.1,0,0,1.1,18.7,156.7)" />
  <rect
     x="0"
     width="282"
     height="78"
     y="0"
     clip-path="url(#clipPath2)"
     id="rect72"
     style="font-weight:bold;font-size:11px;font-family:sans-serif;fill:none;fill-opacity:1;stroke:#000000;stroke-linecap:butt;stroke-linejoin:round;stroke-miterlimit:0;stroke-opacity:1;text-rendering:geometricPrecision"
     transform="matrix(1.1,0,0,1.1,18.7,156.7)" />
  <line
     y2="13.6364"
     x1="0"
     clip-path="url(#clipPath2)"
     x2="282"
     y1="13.6364"
     id="line74"
     style="font-weight:bold;font-size:11px;font-family:sans-serif;fill:none;fill-opacity:1;stroke:#000000;stroke-linecap:butt;stroke-linejoin:round;stroke-miterlimit:0;stroke-opacity:1;text-rendering:geometricPrecision"
     transform="matrix(1.1,0,0,1.1,18.7,156.7)" />
  <text
     x="101"
     xml:space="preserve"
     y="11"
     clip-path="url(#clipPath5)"
     id="text78"
     style="font-weight:bold;font-size:11px;font-family:sans-serif;fill:#000000;fill-opacity:1;stroke:none;stroke-opacity:1;text-rendering:geometricPrecision"
     transform="matrix(1.1,0,0,1.1,18.7,156.7)">QSvgPixmap</text>
  <rect
     x="0"
     width="282"
     height="68"
     y="0"
     clip-path="url(#clipPath7)"
     id="rect82"
     style="font-weight:bold;font-size:11px;font-family:sans-serif;fill:#7acff5;fill-opacity:1;stroke:none;stroke-opacity:1;text-rendering:geometricPrecision"
     transform="matrix(1.1,0,0,1.1,18.7,18.7)" />
  <rect
     x="0"
     width="282"
     height="68"
     y="0"
     clip-path="url(#clipPath7)"
     id="rect86"
     style="font-weight:bold;font-size:11px;font-family:sans-serif;fill:none;fill-opacity:1;stroke:#000000;stroke-linecap:butt;stroke-linejoin:round;stroke-miterlimit:0;stroke-opacity:1;text-rendering:geometricPrecision"
     transform="matrix(1.1,0,0,1.1,18.7,18.7)" />
  <line
     y2="13.6364"
     x1="0"
     clip-path="url(#clipPath7)"
     x2="282"
     y1="13.6364"
     id="line88"
     style="font-weight:bold;font-size:11px;font-family:sans-serif;fill:none;fill-opacity:1;stroke:#000000;stroke-linecap:butt;stroke-linejoin:round;stroke-miterlimit:0;stroke-opacity:1;text-rendering:geometricPrecision"
     transform="matrix(1.1,0,0,1.1,18.7,18.7)" />
  <text
     x="112"
     xml:space="preserve"
     y="11"
     clip-path="url(#clipPath10)"
     id="text92"
     style="font-weight:bold;font-size:11px;font-family:sans-serif;fill:#000000;fill-opacity:1;stroke:none;stroke-opacity:1;text-rendering:geometricPrecision"
     transform="matrix(1.1,0,0,1.1,18.7,18.7)">QPixmap</text>
  <rect
     x="0"
     width="143"
     height="78"
     y="0"
     clip-path="url(#clipPath12)"
     id="rect96"
     style="font-weight:bold;font-size:11px;font-family:sans-serif;fill:#7acff5;fill-opacity:1;stroke:none;stroke-opacity:1;text-rendering:geometricPrecision"
     transform="matrix(1.1,0,0,1.1,386.7,156.7)" />
  <rect
     x="0"
     width="143"
     height="78"
     y="0"
     clip-path="url(#clipPath12)"
     id="rect100"
     style="font-weight:bold;font-size:11px;font-family:sans-serif;fill:none;fill-opacity:1;stroke:#000000;stroke-linecap:butt;stroke-linejoin:round;stroke-miterlimit:0;stroke-opacity:1;text-rendering:geometricPrecision"
     transform="matrix(1.1,0,0,1.1,386.7,156.7)" />
  <line
     y2="28.181801"
     x1="0"
     clip-path="url(#clipPath12)"
     x2="143"
     y1="28.181801"
     id="line102"
     style="font-weight:bold;font-size:11px;font-family:sans-serif;fill:none;fill-opacity:1;stroke:#000000;stroke-linecap:butt;stroke-linejoin:round;stroke-miterlimit:0;stroke-opacity:1;text-rendering:geometricPrecision"
     transform="matrix(1.1,0,0,1.1,386.7,156.7)" />
  <text
     x="2"
     xml:space="preserve"
     y="13"
     clip-path="url(#clipPath14)"
     id="text106"
     style="font-size:11px;font-family:sans-serif;fill:#000000;fill-opacity:1;stroke:none;stroke-opacity:1;text-rendering:geometricPrecision"
     transform="matrix(1.1,0,0,1.1,386.7,187.7)">Cover</text>
  <text
     x="2"
     xml:space="preserve"
     y="27"
     clip-path="url(#clipPath14)"
     id="text110"
     style="font-size:11px;font-family:sans-serif;fill:#000000;fill-opacity:1;stroke:none;stroke-opacity:1;text-rendering:geometricPrecision"
     transform="matrix(1.1,0,0,1.1,386.7,187.7)">Contain</text>
  <text
     x="2"
     xml:space="preserve"
     y="41"
     clip-path="url(#clipPath14)"
     id="text114"
     style="font-size:11px;font-family:sans-serif;fill:#000000;fill-opacity:1;stroke:none;stroke-opacity:1;text-rendering:geometricPrecision"
     transform="matrix(1.1,0,0,1.1,386.7,187.7)">Resized</text>
  <text
     x="17"
     xml:space="preserve"
     y="11"
     clip-path="url(#clipPath16)"
     id="text118"
     style="font-size:11px;font-family:sans-serif;fill:#000000;fill-opacity:1;stroke:none;stroke-opacity:1;text-rendering:geometricPrecision"
     transform="matrix(1.1,0,0,1.1,386.7,156.7)">&lt;&lt;enumeration&gt;&gt;</text>
  <text
     x="48"
     xml:space="preserve"
     y="25"
     clip-path="url(#clipPath16)"
     font-weight="bold"
     id="text120"
     style="font-weight:bold;font-size:11px;font-family:sans-serif;fill:#000000;fill-opacity:1;stroke:none;stroke-opacity:1;text-rendering:geometricPrecision"
     transform="matrix(1.1,0,0,1.1,386.7,156.7)">Stretch</text>
  <line
     y2="112"
     x1="50"
     clip-path="url(#clipPath18)"
     x2="50"
     y1="50"
     id="line124"
     style="font-size:11px;font-family:sans-serif;fill:none;fill-opacity:1;stroke:#000000;stroke-width:1.10000002;stroke-linecap:butt;stroke-linejoin:round;stroke-miterlimit:12.10000038;stroke-opacity:1;text-rendering:geometricPrecision"
     transform="translate(133,45)" />
  <polygon
     clip-path="url(#clipPath18)"
     points="43,62 56,62 50,50 "
     id="polygon126"
     style="font-size:11px;font-family:sans-serif;fill:#ffffff;fill-opacity:1;stroke:none;stroke-width:1.10000002;stroke-linecap:butt;stroke-linejoin:round;stroke-miterlimit:12.10000038;stroke-opacity:1;text-rendering:geometricPrecision"
     transform="translate(133,45)" />
  <polygon
     points="43,62 56,62 50,50 "
     clip-path="url(#clipPath18)"
     id="polygon128"
     style="font-size:11px;font-family:sans-serif;fill:none;fill-opacity:1;stroke:#000000;stroke-width:1.10000002;stroke-linecap:butt;stroke-linejoin:round;stroke-miterlimit:12.10000038;stroke-opacity:1;text-rendering:geometricPrecision"
     transform="translate(133,45)" />
  <line
     y2="50"
     x1="76"
     clip-path="url(#clipPath20)"
     x2="106"
     y1="50"
     id="line132"
     style="font-size:11px;font-family:sans-serif;fill:none;fill-opacity:1;stroke:#000000;stroke-width:1.10000002;stroke-linecap:butt;stroke-linejoin:round;stroke-miterlimit:12.10000038;stroke-opacity:1;text-rendering:geometricPrecision"
     transform="translate(280,150)" />
  <polygon
     points="50,50 62,56 76,50 62,43 "
     clip-path="url(#clipPath20)"
     id="polygon134"
     style="font-size:11px;font-family:sans-serif;fill:#000000;fill-opacity:1;stroke:none;stroke-width:1.10000002;stroke-linecap:butt;stroke-linejoin:round;stroke-miterlimit:12.10000038;stroke-opacity:1;text-rendering:geometricPrecision"
     transform="translate(280,150)" />
  <polygon
     points="50,50 62,56 76,50 62,43 "
     clip-path="url(#clipPath20)"
     id="polygon136"
     style="font-size:11px;font-family:sans-serif;fill:none;fill-opacity:1;stroke:#000000;stroke-width:1.10000002;stroke-linecap:butt;stroke-linejoin:round;stroke-miterlimit:12.10000038;stroke-opacity:1;text-rendering:geometricPrecision"
     transform="translate(280,150)" />
</svg>
